<svg height="512" viewBox="0 0 512 512" width="512" xmlns="http://www.w3.org/2000/svg" xmlns:xlink="http://www.w3.org/1999/xlink"><linearGradient id="a" gradientUnits="userSpaceOnUse" x1="8.186" x2="495.689" y1="502.642" y2="15.14" data-name="New Gradient Swatch 1"><stop offset="0" stop-color="#003f8a"/><stop offset=".518" stop-color="#00d7df"/><stop offset="1" stop-color="#006df0"/></linearGradient><linearGradient id="b" x1="86.772" x2="574.275" xlink:href="#a" y1="581.228" y2="93.725"/><linearGradient id="c" x1="146.772" x2="634.275" xlink:href="#a" y1="641.228" y2="153.725"/><linearGradient id="d" x1="162.772" x2="650.275" xlink:href="#a" y1="657.228" y2="169.725"/><linearGradient id="e" x1="116.772" x2="604.275" xlink:href="#a" y1="611.228" y2="123.725"/><linearGradient id="f" x1="-127.228" x2="360.275" xlink:href="#a" y1="367.228" y2="-120.275"/><linearGradient id="g" x1="-45.228" x2="442.275" xlink:href="#a" y1="449.228" y2="-38.275"/><linearGradient id="h" x1="-77.228" x2="410.275" xlink:href="#a" y1="417.228" y2="-70.275"/><linearGradient id="i" x1="-69.228" x2="418.275" xlink:href="#a" y1="425.228" y2="-62.275"/><g><path d="m448 256h-56v-220a28.031 28.031 0 0 0 -28-28h-216a28.031 28.031 0 0 0 -28 28v52h-56a24.032 24.032 0 0 0 -24 24v112a24.032 24.032 0 0 0 24 24h56v228a28.031 28.031 0 0 0 28 28h216a28.031 28.031 0 0 0 28-28v-60h56a24.032 24.032 0 0 0 24-24v-112a24.032 24.032 0 0 0 -24-24zm-154.25-232-4 16h-67.5l-4-16zm-229.75 208a8.011 8.011 0 0 1 -8-8v-112a8.011 8.011 0 0 1 8-8h176a8.011 8.011 0 0 1 8 8v112a8.011 8.011 0 0 1 -8 8zm312 244a12.01 12.01 0 0 1 -12 12h-216a12.01 12.01 0 0 1 -12-12v-228h104a24.032 24.032 0 0 0 24-24v-112a24.032 24.032 0 0 0 -24-24h-104v-52a12.01 12.01 0 0 1 12-12h53.75l6.49 25.94a8 8 0 0 0 7.76 6.06h80a8 8 0 0 0 7.76-6.06l6.49-25.94h53.75a12.01 12.01 0 0 1 12 12v220h-104a24.032 24.032 0 0 0 -24 24v112a24.032 24.032 0 0 0 24 24h104zm80-84a8.011 8.011 0 0 1 -8 8h-176a8.011 8.011 0 0 1 -8-8v-56h192zm0-72h-192v-16h192zm0-32h-192v-8a8.011 8.011 0 0 1 8-8h176a8.011 8.011 0 0 1 8 8z" fill="url(#a)"/><path d="m288 376h-8a8 8 0 0 0 0 16h8a8 8 0 0 0 0-16z" fill="url(#b)"/><path d="m408 376h-8a8 8 0 0 0 0 16h8a8 8 0 0 0 0-16z" fill="url(#c)"/><path d="m440 376h-8a8 8 0 0 0 0 16h8a8 8 0 0 0 0-16z" fill="url(#d)"/><path d="m216 472a8 8 0 0 0 8 8h64a8 8 0 0 0 0-16h-64a8 8 0 0 0 -8 8z" fill="url(#e)"/><path d="m96 112a32 32 0 1 0 32 32 32.036 32.036 0 0 0 -32-32zm0 48a16 16 0 1 1 16-16 16.019 16.019 0 0 1 -16 16z" fill="url(#f)"/><path d="m176 224h56a8 8 0 0 0 8-8v-32a8 8 0 0 0 -8-8h-56a8 8 0 0 0 -8 8v32a8 8 0 0 0 8 8zm8-32h40v16h-40z" fill="url(#g)"/><path d="m216 128h8a8 8 0 0 0 0-16h-8a8 8 0 0 0 0 16z" fill="url(#h)"/><path d="m200 152h24a8 8 0 0 0 0-16h-24a8 8 0 0 0 0 16z" fill="url(#i)"/></g></svg>